<svg xmlns="http://www.w3.org/2000/svg" xmlns:xlink="http://www.w3.org/1999/xlink" width="500" zoomAndPan="magnify" viewBox="0 0 375 374.999991" height="500" preserveAspectRatio="xMidYMid meet" version="1.2"><defs><clipPath id="a6cf12eea3"><path d="M 223.75 166.371094 L 270.25 166.371094 L 270.25 208.371094 L 223.75 208.371094 Z M 223.75 166.371094 "/></clipPath><clipPath id="4cf5a3ee55"><path d="M 269.058594 176.199219 L 263.355469 167.617188 L 257.789062 176.199219 Z M 262.601562 167.28125 L 248.019531 167.28125 L 256.964844 175.972656 Z M 263.488281 166.492188 C 263.515625 166.5 263.546875 166.515625 263.574219 166.53125 C 263.621094 166.5625 263.65625 166.601562 263.6875 166.644531 L 263.6875 166.648438 L 263.691406 166.648438 L 270.121094 176.328125 C 270.253906 176.46875 270.269531 176.6875 270.152344 176.851562 L 247.351562 208.097656 C 247.34375 208.109375 247.335938 208.121094 247.328125 208.128906 L 247.324219 208.132812 L 247.320312 208.140625 C 247.246094 208.222656 247.148438 208.269531 247.039062 208.277344 L 246.976562 208.277344 L 246.972656 208.273438 L 246.949219 208.273438 L 246.941406 208.269531 L 246.929688 208.269531 L 246.925781 208.265625 L 246.914062 208.265625 L 246.910156 208.261719 L 246.902344 208.261719 C 246.894531 208.257812 246.886719 208.257812 246.878906 208.253906 C 246.800781 208.226562 246.734375 208.175781 246.683594 208.109375 L 223.875 176.851562 C 223.761719 176.691406 223.777344 176.472656 223.90625 176.332031 L 230.328125 166.664062 C 230.359375 166.613281 230.402344 166.566406 230.453125 166.53125 C 230.5 166.503906 230.546875 166.484375 230.59375 166.476562 L 230.601562 166.472656 L 230.613281 166.472656 C 230.636719 166.46875 230.65625 166.46875 230.675781 166.46875 L 263.351562 166.46875 C 263.394531 166.46875 263.433594 166.472656 263.472656 166.484375 L 263.476562 166.488281 L 263.480469 166.488281 Z M 236.242188 176.199219 L 230.671875 167.617188 L 224.972656 176.199219 Z M 231.425781 167.28125 L 237.0625 175.972656 L 246.011719 167.28125 Z M 237.996094 176.199219 L 256.03125 176.199219 L 247.015625 167.441406 Z M 245.855469 205.589844 L 236.695312 177.015625 L 225.007812 177.015625 Z M 237.550781 177.015625 L 247.015625 206.535156 L 256.480469 177.015625 Z M 257.335938 177.015625 L 248.175781 205.585938 L 269.019531 177.015625 Z M 257.335938 177.015625 "/></clipPath><linearGradient x1="-3.015618" gradientTransform="matrix(0.303327,0,0,0.30384,220.716459,161.029466)" y1="55.86299" x2="176.356608" gradientUnits="userSpaceOnUse" y2="117.513383" id="73a7fa2956"><stop style="stop-color:#f4505d;stop-opacity:1;" offset="0"/><stop style="stop-color:#f4505d;stop-opacity:1;" offset="0.03125"/><stop style="stop-color:#f3505f;stop-opacity:1;" offset="0.0351562"/><stop style="stop-color:#f35160;stop-opacity:1;" offset="0.0390625"/><stop style="stop-color:#f35161;stop-opacity:1;" offset="0.0429688"/><stop style="stop-color:#f25162;stop-opacity:1;" offset="0.046875"/><stop style="stop-color:#f25263;stop-opacity:1;" offset="0.0507812"/><stop style="stop-color:#f15265;stop-opacity:1;" offset="0.0546875"/><stop style="stop-color:#f15266;stop-opacity:1;" offset="0.0585937"/><stop style="stop-color:#f05267;stop-opacity:1;" offset="0.0625"/><stop style="stop-color:#f05368;stop-opacity:1;" offset="0.0664062"/><stop style="stop-color:#ef5369;stop-opacity:1;" offset="0.0703125"/><stop style="stop-color:#ef536b;stop-opacity:1;" offset="0.0742187"/><stop style="stop-color:#ef546c;stop-opacity:1;" offset="0.078125"/><stop style="stop-color:#ee546d;stop-opacity:1;" offset="0.0820312"/><stop style="stop-color:#ee546e;stop-opacity:1;" offset="0.0859375"/><stop style="stop-color:#ed546f;stop-opacity:1;" offset="0.0898437"/><stop style="stop-color:#ed5570;stop-opacity:1;" offset="0.09375"/><stop style="stop-color:#ec5572;stop-opacity:1;" offset="0.0976562"/><stop style="stop-color:#ec5573;stop-opacity:1;" offset="0.101562"/><stop style="stop-color:#eb5674;stop-opacity:1;" offset="0.105469"/><stop style="stop-color:#eb5675;stop-opacity:1;" offset="0.109375"/><stop style="stop-color:#ea5676;stop-opacity:1;" offset="0.113281"/><stop style="stop-color:#ea5778;stop-opacity:1;" offset="0.117187"/><stop style="stop-color:#ea5779;stop-opacity:1;" offset="0.121094"/><stop style="stop-color:#e9577a;stop-opacity:1;" offset="0.125"/><stop style="stop-color:#e9577b;stop-opacity:1;" offset="0.128906"/><stop style="stop-color:#e8587c;stop-opacity:1;" offset="0.132812"/><stop style="stop-color:#e8587e;stop-opacity:1;" offset="0.136719"/><stop style="stop-color:#e7587f;stop-opacity:1;" offset="0.140625"/><stop style="stop-color:#e75980;stop-opacity:1;" offset="0.144531"/><stop style="stop-color:#e65981;stop-opacity:1;" offset="0.148438"/><stop style="stop-color:#e65982;stop-opacity:1;" offset="0.152344"/><stop style="stop-color:#e65984;stop-opacity:1;" offset="0.15625"/><stop style="stop-color:#e55a85;stop-opacity:1;" offset="0.160156"/><stop style="stop-color:#e55a86;stop-opacity:1;" offset="0.164062"/><stop style="stop-color:#e45a87;stop-opacity:1;" offset="0.167969"/><stop style="stop-color:#e45b88;stop-opacity:1;" offset="0.171875"/><stop style="stop-color:#e35b89;stop-opacity:1;" offset="0.175781"/><stop style="stop-color:#e35b8b;stop-opacity:1;" offset="0.179688"/><stop style="stop-color:#e25b8c;stop-opacity:1;" offset="0.183594"/><stop style="stop-color:#e25c8d;stop-opacity:1;" offset="0.1875"/><stop style="stop-color:#e25c8e;stop-opacity:1;" offset="0.191406"/><stop style="stop-color:#e15c8f;stop-opacity:1;" offset="0.195312"/><stop style="stop-color:#e15d91;stop-opacity:1;" offset="0.199219"/><stop style="stop-color:#e05d92;stop-opacity:1;" offset="0.203125"/><stop style="stop-color:#e05d93;stop-opacity:1;" offset="0.207031"/><stop style="stop-color:#df5d94;stop-opacity:1;" offset="0.210937"/><stop style="stop-color:#df5e95;stop-opacity:1;" offset="0.214844"/><stop style="stop-color:#de5e97;stop-opacity:1;" offset="0.21875"/><stop style="stop-color:#de5e98;stop-opacity:1;" offset="0.222656"/><stop style="stop-color:#de5f99;stop-opacity:1;" offset="0.226562"/><stop style="stop-color:#dd5f9a;stop-opacity:1;" offset="0.230469"/><stop style="stop-color:#dd5f9b;stop-opacity:1;" offset="0.234375"/><stop style="stop-color:#dc5f9d;stop-opacity:1;" offset="0.238281"/><stop style="stop-color:#dc609e;stop-opacity:1;" offset="0.242188"/><stop style="stop-color:#db609f;stop-opacity:1;" offset="0.246094"/><stop style="stop-color:#db60a0;stop-opacity:1;" offset="0.25"/><stop style="stop-color:#da61a1;stop-opacity:1;" offset="0.253906"/><stop style="stop-color:#da61a2;stop-opacity:1;" offset="0.257812"/><stop style="stop-color:#d961a4;stop-opacity:1;" offset="0.261719"/><stop style="stop-color:#d962a5;stop-opacity:1;" offset="0.265625"/><stop style="stop-color:#d962a6;stop-opacity:1;" offset="0.269531"/><stop style="stop-color:#d862a7;stop-opacity:1;" offset="0.273438"/><stop style="stop-color:#d862a8;stop-opacity:1;" offset="0.277344"/><stop style="stop-color:#d763aa;stop-opacity:1;" offset="0.28125"/><stop style="stop-color:#d763ab;stop-opacity:1;" offset="0.285156"/><stop style="stop-color:#d663ac;stop-opacity:1;" offset="0.289062"/><stop style="stop-color:#d664ad;stop-opacity:1;" offset="0.292969"/><stop style="stop-color:#d564ae;stop-opacity:1;" offset="0.296875"/><stop style="stop-color:#d564b0;stop-opacity:1;" offset="0.300781"/><stop style="stop-color:#d564b1;stop-opacity:1;" offset="0.304688"/><stop style="stop-color:#d465b2;stop-opacity:1;" offset="0.308594"/><stop style="stop-color:#d465b3;stop-opacity:1;" offset="0.3125"/><stop style="stop-color:#d365b4;stop-opacity:1;" offset="0.316406"/><stop style="stop-color:#d366b6;stop-opacity:1;" offset="0.320312"/><stop style="stop-color:#d266b7;stop-opacity:1;" offset="0.324219"/><stop style="stop-color:#d266b8;stop-opacity:1;" offset="0.328125"/><stop style="stop-color:#d166b9;stop-opacity:1;" offset="0.332031"/><stop style="stop-color:#d167ba;stop-opacity:1;" offset="0.335938"/><stop style="stop-color:#d167bb;stop-opacity:1;" offset="0.339844"/><stop style="stop-color:#d067bd;stop-opacity:1;" offset="0.34375"/><stop style="stop-color:#d068be;stop-opacity:1;" offset="0.347656"/><stop style="stop-color:#cf68bf;stop-opacity:1;" offset="0.351562"/><stop style="stop-color:#cf68c0;stop-opacity:1;" offset="0.355469"/><stop style="stop-color:#ce68c1;stop-opacity:1;" offset="0.359375"/><stop style="stop-color:#ce69c3;stop-opacity:1;" offset="0.363281"/><stop style="stop-color:#cd69c4;stop-opacity:1;" offset="0.367188"/><stop style="stop-color:#cd69c5;stop-opacity:1;" offset="0.371094"/><stop style="stop-color:#cd6ac6;stop-opacity:1;" offset="0.375"/><stop style="stop-color:#cc6ac7;stop-opacity:1;" offset="0.378906"/><stop style="stop-color:#cc6ac9;stop-opacity:1;" offset="0.382812"/><stop style="stop-color:#cb6aca;stop-opacity:1;" offset="0.386719"/><stop style="stop-color:#cb6bcb;stop-opacity:1;" offset="0.390625"/><stop style="stop-color:#ca6bcc;stop-opacity:1;" offset="0.394531"/><stop style="stop-color:#ca6bcd;stop-opacity:1;" offset="0.398437"/><stop style="stop-color:#c96ccf;stop-opacity:1;" offset="0.402344"/><stop style="stop-color:#c96cd0;stop-opacity:1;" offset="0.40625"/><stop style="stop-color:#c86cd1;stop-opacity:1;" offset="0.410156"/><stop style="stop-color:#c86cd2;stop-opacity:1;" offset="0.414062"/><stop style="stop-color:#c86dd3;stop-opacity:1;" offset="0.417969"/><stop style="stop-color:#c76dd4;stop-opacity:1;" offset="0.421875"/><stop style="stop-color:#c76dd6;stop-opacity:1;" offset="0.425781"/><stop style="stop-color:#c66ed7;stop-opacity:1;" offset="0.429687"/><stop style="stop-color:#c66ed8;stop-opacity:1;" offset="0.433594"/><stop style="stop-color:#c56ed9;stop-opacity:1;" offset="0.4375"/><stop style="stop-color:#c56fda;stop-opacity:1;" offset="0.441406"/><stop style="stop-color:#c46fdc;stop-opacity:1;" offset="0.445312"/><stop style="stop-color:#c46fdd;stop-opacity:1;" offset="0.449219"/><stop style="stop-color:#c46fde;stop-opacity:1;" offset="0.453125"/><stop style="stop-color:#c370df;stop-opacity:1;" offset="0.457031"/><stop style="stop-color:#c370e0;stop-opacity:1;" offset="0.460937"/><stop style="stop-color:#c270e2;stop-opacity:1;" offset="0.464844"/><stop style="stop-color:#c271e3;stop-opacity:1;" offset="0.46875"/><stop style="stop-color:#c171e4;stop-opacity:1;" offset="0.472656"/><stop style="stop-color:#c171e5;stop-opacity:1;" offset="0.476562"/><stop style="stop-color:#c071e6;stop-opacity:1;" offset="0.480469"/><stop style="stop-color:#c072e8;stop-opacity:1;" offset="0.484375"/><stop style="stop-color:#c072e9;stop-opacity:1;" offset="0.488281"/><stop style="stop-color:#bf72ea;stop-opacity:1;" offset="0.492187"/><stop style="stop-color:#bf73eb;stop-opacity:1;" offset="0.496094"/><stop style="stop-color:#be73ec;stop-opacity:1;" offset="0.5"/><stop style="stop-color:#bd73ed;stop-opacity:1;" offset="0.503906"/><stop style="stop-color:#bc74ed;stop-opacity:1;" offset="0.507812"/><stop style="stop-color:#ba75ed;stop-opacity:1;" offset="0.511719"/><stop style="stop-color:#b975ed;stop-opacity:1;" offset="0.515625"/><stop style="stop-color:#b876ed;stop-opacity:1;" offset="0.519531"/><stop style="stop-color:#b677ed;stop-opacity:1;" offset="0.523438"/><stop style="stop-color:#b577ed;stop-opacity:1;" offset="0.527344"/><stop style="stop-color:#b378ed;stop-opacity:1;" offset="0.53125"/><stop style="stop-color:#b278ed;stop-opacity:1;" offset="0.535156"/><stop style="stop-color:#b179ed;stop-opacity:1;" offset="0.539062"/><stop style="stop-color:#af7aed;stop-opacity:1;" offset="0.542969"/><stop style="stop-color:#ae7aed;stop-opacity:1;" offset="0.546875"/><stop style="stop-color:#ac7bec;stop-opacity:1;" offset="0.550781"/><stop style="stop-color:#ab7cec;stop-opacity:1;" offset="0.554688"/><stop style="stop-color:#aa7cec;stop-opacity:1;" offset="0.558594"/><stop style="stop-color:#a87dec;stop-opacity:1;" offset="0.5625"/><stop style="stop-color:#a77eec;stop-opacity:1;" offset="0.566406"/><stop style="stop-color:#a57eec;stop-opacity:1;" offset="0.570312"/><stop style="stop-color:#a47fec;stop-opacity:1;" offset="0.574219"/><stop style="stop-color:#a380ec;stop-opacity:1;" offset="0.578125"/><stop style="stop-color:#a180ec;stop-opacity:1;" offset="0.582031"/><stop style="stop-color:#a081ec;stop-opacity:1;" offset="0.585938"/><stop style="stop-color:#9e81ec;stop-opacity:1;" offset="0.589844"/><stop style="stop-color:#9d82ec;stop-opacity:1;" offset="0.59375"/><stop style="stop-color:#9b83ec;stop-opacity:1;" offset="0.597656"/><stop style="stop-color:#9a83ec;stop-opacity:1;" offset="0.601562"/><stop style="stop-color:#9984ec;stop-opacity:1;" offset="0.605469"/><stop style="stop-color:#9785ec;stop-opacity:1;" offset="0.609375"/><stop style="stop-color:#9685ec;stop-opacity:1;" offset="0.613281"/><stop style="stop-color:#9486ec;stop-opacity:1;" offset="0.617188"/><stop style="stop-color:#9387ec;stop-opacity:1;" offset="0.621094"/><stop style="stop-color:#9287ec;stop-opacity:1;" offset="0.625"/><stop style="stop-color:#9088ec;stop-opacity:1;" offset="0.628906"/><stop style="stop-color:#8f89ec;stop-opacity:1;" offset="0.632812"/><stop style="stop-color:#8d89ec;stop-opacity:1;" offset="0.636719"/><stop style="stop-color:#8c8aec;stop-opacity:1;" offset="0.640625"/><stop style="stop-color:#8b8aec;stop-opacity:1;" offset="0.644531"/><stop style="stop-color:#898bec;stop-opacity:1;" offset="0.648438"/><stop style="stop-color:#888cec;stop-opacity:1;" offset="0.652344"/><stop style="stop-color:#868cec;stop-opacity:1;" offset="0.65625"/><stop style="stop-color:#858dec;stop-opacity:1;" offset="0.660156"/><stop style="stop-color:#838eec;stop-opacity:1;" offset="0.664062"/><stop style="stop-color:#828eec;stop-opacity:1;" offset="0.667969"/><stop style="stop-color:#818fec;stop-opacity:1;" offset="0.671875"/><stop style="stop-color:#7f90eb;stop-opacity:1;" offset="0.675781"/><stop style="stop-color:#7e90eb;stop-opacity:1;" offset="0.679688"/><stop style="stop-color:#7c91eb;stop-opacity:1;" offset="0.683594"/><stop style="stop-color:#7b91eb;stop-opacity:1;" offset="0.6875"/><stop style="stop-color:#7a92eb;stop-opacity:1;" offset="0.691406"/><stop style="stop-color:#7893eb;stop-opacity:1;" offset="0.695312"/><stop style="stop-color:#7793eb;stop-opacity:1;" offset="0.699219"/><stop style="stop-color:#7594eb;stop-opacity:1;" offset="0.703125"/><stop style="stop-color:#7495eb;stop-opacity:1;" offset="0.707031"/><stop style="stop-color:#7395eb;stop-opacity:1;" offset="0.710938"/><stop style="stop-color:#7196eb;stop-opacity:1;" offset="0.714844"/><stop style="stop-color:#7097eb;stop-opacity:1;" offset="0.71875"/><stop style="stop-color:#6e97eb;stop-opacity:1;" offset="0.722656"/><stop style="stop-color:#6d98eb;stop-opacity:1;" offset="0.726562"/><stop style="stop-color:#6c99eb;stop-opacity:1;" offset="0.730469"/><stop style="stop-color:#6a99eb;stop-opacity:1;" offset="0.734375"/><stop style="stop-color:#699aeb;stop-opacity:1;" offset="0.738281"/><stop style="stop-color:#679aeb;stop-opacity:1;" offset="0.742188"/><stop style="stop-color:#669beb;stop-opacity:1;" offset="0.746094"/><stop style="stop-color:#649ceb;stop-opacity:1;" offset="0.75"/><stop style="stop-color:#639ceb;stop-opacity:1;" offset="0.753906"/><stop style="stop-color:#629deb;stop-opacity:1;" offset="0.757812"/><stop style="stop-color:#609eeb;stop-opacity:1;" offset="0.761719"/><stop style="stop-color:#5f9eeb;stop-opacity:1;" offset="0.765625"/><stop style="stop-color:#5d9feb;stop-opacity:1;" offset="0.769531"/><stop style="stop-color:#5ca0eb;stop-opacity:1;" offset="0.773438"/><stop style="stop-color:#5ba0eb;stop-opacity:1;" offset="0.777344"/><stop style="stop-color:#59a1eb;stop-opacity:1;" offset="0.78125"/><stop style="stop-color:#58a2eb;stop-opacity:1;" offset="0.785156"/><stop style="stop-color:#56a2eb;stop-opacity:1;" offset="0.789062"/><stop style="stop-color:#55a3eb;stop-opacity:1;" offset="0.792969"/><stop style="stop-color:#54a3ea;stop-opacity:1;" offset="0.796875"/><stop style="stop-color:#52a4ea;stop-opacity:1;" offset="0.800781"/><stop style="stop-color:#51a5ea;stop-opacity:1;" offset="0.804688"/><stop style="stop-color:#4fa5ea;stop-opacity:1;" offset="0.808594"/><stop style="stop-color:#4ea6ea;stop-opacity:1;" offset="0.8125"/><stop style="stop-color:#4ca7ea;stop-opacity:1;" offset="0.816406"/><stop style="stop-color:#4ba7ea;stop-opacity:1;" offset="0.820312"/><stop style="stop-color:#4aa8ea;stop-opacity:1;" offset="0.824219"/><stop style="stop-color:#48a9ea;stop-opacity:1;" offset="0.828125"/><stop style="stop-color:#47a9ea;stop-opacity:1;" offset="0.832031"/><stop style="stop-color:#45aaea;stop-opacity:1;" offset="0.835938"/><stop style="stop-color:#44abea;stop-opacity:1;" offset="0.839844"/><stop style="stop-color:#43abea;stop-opacity:1;" offset="0.84375"/><stop style="stop-color:#41acea;stop-opacity:1;" offset="0.847656"/><stop style="stop-color:#40acea;stop-opacity:1;" offset="0.851562"/><stop style="stop-color:#3eadea;stop-opacity:1;" offset="0.855469"/><stop style="stop-color:#3daeea;stop-opacity:1;" offset="0.859375"/><stop style="stop-color:#3caeea;stop-opacity:1;" offset="0.863281"/><stop style="stop-color:#3aafea;stop-opacity:1;" offset="0.867188"/><stop style="stop-color:#39b0ea;stop-opacity:1;" offset="0.871094"/><stop style="stop-color:#37b0ea;stop-opacity:1;" offset="0.875"/><stop style="stop-color:#36b1ea;stop-opacity:1;" offset="0.878906"/><stop style="stop-color:#35b2ea;stop-opacity:1;" offset="0.882812"/><stop style="stop-color:#33b2ea;stop-opacity:1;" offset="0.886719"/><stop style="stop-color:#32b3ea;stop-opacity:1;" offset="0.890625"/><stop style="stop-color:#30b4ea;stop-opacity:1;" offset="0.894531"/><stop style="stop-color:#2fb4ea;stop-opacity:1;" offset="0.898438"/><stop style="stop-color:#2db5ea;stop-opacity:1;" offset="0.902344"/><stop style="stop-color:#2cb5ea;stop-opacity:1;" offset="0.90625"/><stop style="stop-color:#2bb6ea;stop-opacity:1;" offset="0.910156"/><stop style="stop-color:#29b7ea;stop-opacity:1;" offset="0.914062"/><stop style="stop-color:#28b7e9;stop-opacity:1;" offset="0.917969"/><stop style="stop-color:#26b8e9;stop-opacity:1;" offset="0.921875"/><stop style="stop-color:#25b9e9;stop-opacity:1;" offset="0.925781"/><stop style="stop-color:#24b9e9;stop-opacity:1;" offset="0.929688"/><stop style="stop-color:#22bae9;stop-opacity:1;" offset="0.933594"/><stop style="stop-color:#21bbe9;stop-opacity:1;" offset="0.9375"/><stop style="stop-color:#1fbbe9;stop-opacity:1;" offset="0.941406"/><stop style="stop-color:#1ebce9;stop-opacity:1;" offset="0.945312"/><stop style="stop-color:#1dbde9;stop-opacity:1;" offset="0.949219"/><stop style="stop-color:#1bbde9;stop-opacity:1;" offset="0.953125"/><stop style="stop-color:#1abee9;stop-opacity:1;" offset="0.957031"/><stop style="stop-color:#18bee9;stop-opacity:1;" offset="0.960938"/><stop style="stop-color:#17bfe9;stop-opacity:1;" offset="0.964844"/><stop style="stop-color:#15c0e9;stop-opacity:1;" offset="0.96875"/><stop style="stop-color:#15c0e9;stop-opacity:1;" offset="1"/></linearGradient></defs><g id="f676c9bd45"><g style="fill:#ffffff;fill-opacity:1;"><g transform="translate(37.068983, 206.491896)"><path style="stroke:none" d="M 40.484375 -17.25 L 40.109375 -14.984375 C 39.304688 -10.492188 37.113281 -6.800781 33.53125 -3.90625 C 29.945312 -1.007812 25.914062 0.4375 21.4375 0.4375 C 18.832031 0.4375 16.375 -0.0664062 14.0625 -1.078125 C 11.738281 -2.054688 9.726562 -3.414062 8.03125 -5.15625 C 6.289062 -6.851562 4.9375 -8.859375 3.96875 -11.171875 C 2.945312 -13.492188 2.4375 -15.972656 2.4375 -18.609375 C 2.4375 -21.210938 2.945312 -23.675781 3.96875 -26 C 4.9375 -28.3125 6.289062 -30.335938 8.03125 -32.078125 C 9.726562 -33.773438 11.738281 -35.128906 14.0625 -36.140625 C 16.375 -37.117188 18.707031 -37.609375 21.0625 -37.609375 C 25.46875 -37.609375 29.351562 -36.359375 32.71875 -33.859375 C 36.125 -31.367188 38.441406 -28.078125 39.671875 -23.984375 L 35.65625 -23.984375 C 34.5 -26.984375 32.632812 -29.375 30.0625 -31.15625 C 27.457031 -32.925781 24.582031 -33.8125 21.4375 -33.8125 C 17.238281 -33.8125 13.65625 -32.328125 10.6875 -29.359375 C 7.71875 -26.390625 6.234375 -22.804688 6.234375 -18.609375 C 6.234375 -14.453125 7.71875 -10.875 10.6875 -7.875 C 13.613281 -4.863281 17.195312 -3.359375 21.4375 -3.359375 C 24.757812 -3.359375 27.796875 -4.316406 30.546875 -6.234375 C 33.265625 -8.191406 35.164062 -10.765625 36.25 -13.953125 L 21.265625 -13.953125 L 21.265625 -17.25 Z M 40.484375 -17.25 "/></g></g><g style="fill:#ffffff;fill-opacity:1;"><g transform="translate(82.866509, 206.491896)"><path style="stroke:none" d="M 26 0 L 4.0625 0 L 4.0625 -36.90625 L 26 -36.90625 L 26 -33.375 L 7.875 -33.375 L 7.875 -20.234375 L 25.453125 -20.234375 L 25.453125 -16.65625 L 7.875 -16.65625 L 7.875 -3.53125 L 26 -3.53125 Z M 26 0 "/></g></g><g style="fill:#ffffff;fill-opacity:1;"><g transform="translate(115.80382, 206.491896)"><path style="stroke:none" d="M 38.09375 0 L 32.34375 -26.265625 L 21.265625 2.171875 L 10.140625 -26.265625 L 4.453125 0 L 0.546875 0 L 9.171875 -39.34375 L 21.265625 -7.765625 L 33.375 -39.34375 L 41.953125 0 Z M 38.09375 0 "/></g></g><g style="fill:#ffffff;fill-opacity:1;"><g transform="translate(161.167256, 206.491896)"><path style="stroke:none" d="M 14.328125 -17.421875 C 6.796875 -19.160156 3.03125 -22.378906 3.03125 -27.078125 C 3.03125 -30.546875 4.242188 -33.148438 6.671875 -34.890625 C 9.097656 -36.585938 11.9375 -37.4375 15.1875 -37.4375 C 22.394531 -37.4375 26.664062 -34.757812 28 -29.40625 L 23.875 -29.40625 C 23.15625 -32.59375 20.257812 -34.1875 15.1875 -34.1875 C 11.644531 -34.1875 9.171875 -33.140625 7.765625 -31.046875 C 7.222656 -30.242188 6.953125 -29.25 6.953125 -28.0625 C 6.953125 -25.78125 8.179688 -24.023438 10.640625 -22.796875 C 11.796875 -22.179688 14.253906 -21.382812 18.015625 -20.40625 C 21.773438 -19.425781 24.503906 -18.335938 26.203125 -17.140625 C 28.554688 -15.484375 29.734375 -13.148438 29.734375 -10.140625 C 29.734375 -6.421875 28.269531 -3.601562 25.34375 -1.6875 C 22.882812 -0.09375 19.84375 0.703125 16.21875 0.703125 C 8.050781 0.703125 3.316406 -2.40625 2.015625 -8.625 L 6.515625 -8.625 C 7.203125 -4.71875 10.4375 -2.765625 16.21875 -2.765625 C 20.34375 -2.765625 23.222656 -3.90625 24.859375 -6.1875 C 25.503906 -7.09375 25.828125 -8.320312 25.828125 -9.875 C 25.828125 -11.394531 25.234375 -12.644531 24.046875 -13.625 C 22.335938 -15 19.097656 -16.265625 14.328125 -17.421875 Z M 14.328125 -17.421875 "/></g></g><g style="fill:#ffffff;fill-opacity:1;"><g transform="translate(195.189822, 206.491896)"><path style="stroke:none" d="M 1.078125 -33.484375 L 1.078125 -37.015625 L 22.796875 -37.015625 L 22.796875 -33.484375 L 13.84375 -33.484375 L 13.84375 -0.109375 L 10.046875 -0.109375 L 10.046875 -33.484375 Z M 1.078125 -33.484375 "/></g></g><g style="fill:#ffffff;fill-opacity:1;"><g transform="translate(221.943114, 206.491896)"><path style="stroke:none" d=""/></g></g><g style="fill:#ffffff;fill-opacity:1;"><g transform="translate(239.469888, 206.491896)"><path style="stroke:none" d=""/></g></g><g style="fill:#ffffff;fill-opacity:1;"><g transform="translate(256.996661, 206.491896)"><path style="stroke:none" d=""/></g></g><g style="fill:#ffffff;fill-opacity:1;"><g transform="translate(274.531142, 206.491896)"><path style="stroke:none" d="M 7.875 -27.1875 L 7.875 0 L 4.0625 0 L 4.0625 -39.234375 L 24.796875 -9.765625 L 24.796875 -36.90625 L 28.59375 -36.90625 L 28.59375 2.28125 Z M 7.875 -27.1875 "/></g></g><g style="fill:#ffffff;fill-opacity:1;"><g transform="translate(310.073052, 206.491896)"><path style="stroke:none" d="M 26 0 L 4.0625 0 L 4.0625 -36.90625 L 26 -36.90625 L 26 -33.375 L 7.875 -33.375 L 7.875 -20.234375 L 25.453125 -20.234375 L 25.453125 -16.65625 L 7.875 -16.65625 L 7.875 -3.53125 L 26 -3.53125 Z M 26 0 "/></g></g><g clip-rule="nonzero" clip-path="url(#a6cf12eea3)"><g clip-rule="evenodd" clip-path="url(#4cf5a3ee55)"><path style=" stroke:none;fill-rule:nonzero;fill:url(#73a7fa2956);" d="M 223.761719 166.46875 L 223.761719 208.277344 L 270.25 208.277344 L 270.25 166.46875 Z M 223.761719 166.46875 "/></g></g><g style="fill:#ffffff;fill-opacity:1;"><g transform="translate(137.889429, 231.507525)"><path style="stroke:none" d="M 7.84375 -4.421875 C 7.84375 -3.773438 7.722656 -3.1875 7.484375 -2.65625 C 7.242188 -2.101562 6.921875 -1.632812 6.515625 -1.25 C 6.109375 -0.851562 5.625 -0.550781 5.0625 -0.34375 C 4.507812 -0.113281 3.914062 0 3.28125 0 L 0.96875 0 L 0.96875 -8.84375 L 3.28125 -8.84375 C 3.914062 -8.84375 4.507812 -8.734375 5.0625 -8.515625 C 5.625 -8.285156 6.109375 -7.976562 6.515625 -7.59375 C 6.921875 -7.195312 7.242188 -6.734375 7.484375 -6.203125 C 7.722656 -5.648438 7.84375 -5.054688 7.84375 -4.421875 Z M 6.953125 -4.421875 C 6.953125 -5.421875 6.597656 -6.257812 5.890625 -6.9375 C 5.191406 -7.601562 4.332031 -7.9375 3.3125 -7.9375 L 1.890625 -7.9375 L 1.890625 -0.90625 L 3.3125 -0.90625 C 4.332031 -0.90625 5.191406 -1.234375 5.890625 -1.890625 C 6.597656 -2.566406 6.953125 -3.410156 6.953125 -4.421875 Z M 6.953125 -4.421875 "/></g></g><g style="fill:#ffffff;fill-opacity:1;"><g transform="translate(146.31085, 231.507525)"><path style="stroke:none" d="M 1.890625 -7.703125 C 2.003906 -7.585938 2.0625 -7.453125 2.0625 -7.296875 C 2.0625 -7.128906 2.003906 -6.988281 1.890625 -6.875 C 1.785156 -6.757812 1.65625 -6.703125 1.5 -6.703125 C 1.332031 -6.703125 1.191406 -6.757812 1.078125 -6.875 C 0.960938 -6.988281 0.90625 -7.128906 0.90625 -7.296875 C 0.90625 -7.453125 0.960938 -7.585938 1.078125 -7.703125 C 1.191406 -7.804688 1.332031 -7.859375 1.5 -7.859375 C 1.65625 -7.859375 1.785156 -7.804688 1.890625 -7.703125 Z M 1.953125 0 L 1.046875 0 L 1.046875 -5.71875 L 1.953125 -5.71875 Z M 1.953125 0 "/></g></g><g style="fill:#ffffff;fill-opacity:1;"><g transform="translate(149.286943, 231.507525)"><path style="stroke:none" d="M 5.53125 -2.859375 C 5.53125 -3.410156 5.335938 -3.894531 4.953125 -4.3125 C 4.566406 -4.726562 4.085938 -4.9375 3.515625 -4.9375 C 2.941406 -4.9375 2.460938 -4.726562 2.078125 -4.3125 C 1.691406 -3.894531 1.5 -3.410156 1.5 -2.859375 C 1.5 -2.304688 1.691406 -1.820312 2.078125 -1.40625 C 2.460938 -0.988281 2.941406 -0.78125 3.515625 -0.78125 C 4.085938 -0.78125 4.566406 -0.988281 4.953125 -1.40625 C 5.335938 -1.820312 5.53125 -2.304688 5.53125 -2.859375 Z M 6.4375 0 L 5.53125 0 L 5.53125 -0.96875 C 5.476562 -0.90625 5.425781 -0.84375 5.375 -0.78125 C 4.820312 -0.175781 4.148438 0.125 3.359375 0.125 C 2.578125 0.125 1.914062 -0.175781 1.375 -0.78125 C 0.84375 -1.363281 0.578125 -2.054688 0.578125 -2.859375 C 0.578125 -3.660156 0.84375 -4.351562 1.375 -4.9375 C 1.914062 -5.539062 2.578125 -5.84375 3.359375 -5.84375 C 4.148438 -5.84375 4.820312 -5.539062 5.375 -4.9375 C 5.425781 -4.875 5.476562 -4.8125 5.53125 -4.75 L 5.53125 -5.71875 L 6.4375 -5.71875 Z M 6.4375 0 "/></g></g><g style="fill:#ffffff;fill-opacity:1;"><g transform="translate(156.694669, 231.507525)"><path style="stroke:none" d="M 8.234375 -0.03125 L 8.234375 -3.59375 C 8.234375 -4.1875 8.046875 -4.601562 7.671875 -4.84375 C 7.535156 -4.925781 7.335938 -4.96875 7.078125 -4.96875 C 6.804688 -4.96875 6.550781 -4.890625 6.3125 -4.734375 C 6.082031 -4.578125 5.898438 -4.378906 5.765625 -4.140625 C 5.710938 -4.035156 5.660156 -3.929688 5.609375 -3.828125 C 5.609375 -3.753906 5.609375 -3.675781 5.609375 -3.59375 L 5.609375 -0.03125 L 4.703125 -0.03125 L 4.703125 -3.59375 C 4.703125 -4.1875 4.515625 -4.601562 4.140625 -4.84375 C 4.015625 -4.925781 3.816406 -4.96875 3.546875 -4.96875 C 3.273438 -4.96875 3.023438 -4.890625 2.796875 -4.734375 C 2.554688 -4.578125 2.367188 -4.378906 2.234375 -4.140625 C 2.054688 -3.816406 1.941406 -3.421875 1.890625 -2.953125 L 1.890625 -0.03125 L 0.96875 -0.03125 L 0.96875 -5.75 L 1.890625 -5.75 L 1.890625 -4.84375 C 2.054688 -5.132812 2.269531 -5.367188 2.53125 -5.546875 C 2.832031 -5.765625 3.179688 -5.875 3.578125 -5.875 C 3.972656 -5.875 4.289062 -5.8125 4.53125 -5.6875 C 4.78125 -5.5625 4.984375 -5.394531 5.140625 -5.1875 C 5.234375 -5.0625 5.3125 -4.925781 5.375 -4.78125 C 5.550781 -5.09375 5.78125 -5.347656 6.0625 -5.546875 C 6.351562 -5.765625 6.695312 -5.875 7.09375 -5.875 C 7.5 -5.875 7.820312 -5.8125 8.0625 -5.6875 C 8.300781 -5.5625 8.503906 -5.394531 8.671875 -5.1875 C 8.984375 -4.78125 9.140625 -4.25 9.140625 -3.59375 L 9.140625 -0.03125 Z M 8.234375 -0.03125 "/></g></g><g style="fill:#ffffff;fill-opacity:1;"><g transform="translate(166.61063, 231.507525)"><path style="stroke:none" d="M 5.65625 -2.890625 C 5.65625 -3.460938 5.453125 -3.953125 5.046875 -4.359375 C 4.640625 -4.765625 4.148438 -4.96875 3.578125 -4.96875 C 3.003906 -4.96875 2.515625 -4.765625 2.109375 -4.359375 C 1.703125 -3.953125 1.5 -3.460938 1.5 -2.890625 C 1.5 -2.328125 1.703125 -1.84375 2.109375 -1.4375 C 2.515625 -1.019531 3.003906 -0.8125 3.578125 -0.8125 C 4.148438 -0.8125 4.640625 -1.019531 5.046875 -1.4375 C 5.453125 -1.84375 5.65625 -2.328125 5.65625 -2.890625 Z M 6.5625 -2.890625 C 6.5625 -2.054688 6.269531 -1.351562 5.6875 -0.78125 C 5.09375 -0.195312 4.390625 0.09375 3.578125 0.09375 C 2.765625 0.09375 2.0625 -0.195312 1.46875 -0.78125 C 0.875 -1.351562 0.578125 -2.054688 0.578125 -2.890625 C 0.578125 -3.710938 0.875 -4.414062 1.46875 -5 C 2.050781 -5.582031 2.753906 -5.875 3.578125 -5.875 C 4.398438 -5.875 5.101562 -5.582031 5.6875 -5 C 6.269531 -4.414062 6.5625 -3.710938 6.5625 -2.890625 Z M 6.5625 -2.890625 "/></g></g><g style="fill:#ffffff;fill-opacity:1;"><g transform="translate(173.758438, 231.507525)"><path style="stroke:none" d="M 4.921875 0 L 4.921875 -3.578125 C 4.921875 -3.953125 4.84375 -4.269531 4.6875 -4.53125 C 4.507812 -4.789062 4.222656 -4.921875 3.828125 -4.921875 C 3.441406 -4.921875 3.128906 -4.847656 2.890625 -4.703125 C 2.640625 -4.554688 2.441406 -4.367188 2.296875 -4.140625 C 2.023438 -3.703125 1.890625 -3.117188 1.890625 -2.390625 L 1.890625 0 L 0.96875 0 L 0.96875 -5.71875 L 1.890625 -5.71875 L 1.890625 -4.734375 C 2.078125 -5.054688 2.316406 -5.320312 2.609375 -5.53125 C 2.921875 -5.738281 3.28125 -5.84375 3.6875 -5.84375 C 4.09375 -5.84375 4.425781 -5.785156 4.6875 -5.671875 C 4.9375 -5.546875 5.144531 -5.382812 5.3125 -5.1875 C 5.664062 -4.78125 5.84375 -4.242188 5.84375 -3.578125 L 5.84375 0 Z M 4.921875 0 "/></g></g><g style="fill:#ffffff;fill-opacity:1;"><g transform="translate(180.373409, 231.507525)"><path style="stroke:none" d="M 5.53125 -2.859375 C 5.53125 -3.410156 5.335938 -3.894531 4.953125 -4.3125 C 4.566406 -4.726562 4.085938 -4.9375 3.515625 -4.9375 C 2.941406 -4.9375 2.460938 -4.726562 2.078125 -4.3125 C 1.691406 -3.894531 1.5 -3.410156 1.5 -2.859375 C 1.5 -2.304688 1.691406 -1.820312 2.078125 -1.40625 C 2.460938 -0.988281 2.941406 -0.78125 3.515625 -0.78125 C 4.085938 -0.78125 4.566406 -0.988281 4.953125 -1.40625 C 5.335938 -1.820312 5.53125 -2.304688 5.53125 -2.859375 Z M 6.4375 0 L 5.53125 0 L 5.53125 -0.96875 C 5.476562 -0.90625 5.425781 -0.84375 5.375 -0.78125 C 4.820312 -0.175781 4.148438 0.125 3.359375 0.125 C 2.578125 0.125 1.914062 -0.175781 1.375 -0.78125 C 0.84375 -1.363281 0.578125 -2.054688 0.578125 -2.859375 C 0.578125 -3.660156 0.84375 -4.351562 1.375 -4.9375 C 1.914062 -5.539062 2.578125 -5.84375 3.359375 -5.84375 C 4.148438 -5.84375 4.820312 -5.539062 5.375 -4.9375 C 5.425781 -4.875 5.476562 -4.8125 5.53125 -4.75 L 5.53125 -9.75 L 6.4375 -9.75 Z M 6.4375 0 "/></g></g><g style="fill:#ffffff;fill-opacity:1;"><g transform="translate(187.781134, 231.507525)"><path style="stroke:none" d="M 2.328125 -9.75 L 0.875 -6.390625 L 0.328125 -6.390625 L 1.078125 -9.75 Z M 2.328125 -9.75 "/></g></g><g style="fill:#ffffff;fill-opacity:1;"><g transform="translate(190.432318, 231.507525)"><path style="stroke:none" d="M 1.8125 -0.8125 C 2.03125 -0.65625 2.320312 -0.578125 2.6875 -0.578125 C 3.519531 -0.578125 3.9375 -0.890625 3.9375 -1.515625 C 3.9375 -1.878906 3.640625 -2.160156 3.046875 -2.359375 C 2.796875 -2.441406 2.523438 -2.519531 2.234375 -2.59375 C 1.941406 -2.65625 1.671875 -2.742188 1.421875 -2.859375 C 1.117188 -2.992188 0.894531 -3.164062 0.75 -3.375 C 0.601562 -3.582031 0.53125 -3.832031 0.53125 -4.125 C 0.53125 -4.695312 0.726562 -5.125 1.125 -5.40625 C 1.53125 -5.695312 2.007812 -5.84375 2.5625 -5.84375 C 3.113281 -5.84375 3.570312 -5.734375 3.9375 -5.515625 C 4.300781 -5.285156 4.550781 -4.878906 4.6875 -4.296875 L 3.703125 -4.296875 C 3.597656 -4.617188 3.445312 -4.832031 3.25 -4.9375 C 3.0625 -5.039062 2.820312 -5.09375 2.53125 -5.09375 C 2.25 -5.09375 2.007812 -5.03125 1.8125 -4.90625 C 1.601562 -4.78125 1.5 -4.59375 1.5 -4.34375 C 1.5 -4.082031 1.582031 -3.890625 1.75 -3.765625 C 1.914062 -3.648438 2.125 -3.550781 2.375 -3.46875 C 2.625 -3.394531 2.898438 -3.328125 3.203125 -3.265625 C 3.484375 -3.191406 3.753906 -3.097656 4.015625 -2.984375 C 4.609375 -2.703125 4.90625 -2.253906 4.90625 -1.640625 C 4.90625 -1.023438 4.679688 -0.566406 4.234375 -0.265625 C 4.015625 -0.117188 3.769531 -0.0078125 3.5 0.0625 C 3.238281 0.132812 2.953125 0.171875 2.640625 0.171875 C 1.316406 0.171875 0.550781 -0.414062 0.34375 -1.59375 L 1.3125 -1.59375 C 1.40625 -1.226562 1.570312 -0.96875 1.8125 -0.8125 Z M 1.8125 -0.8125 "/></g></g><g style="fill:#ffffff;fill-opacity:1;"><g transform="translate(195.656718, 231.507525)"><path style="stroke:none" d=""/></g></g><g style="fill:#ffffff;fill-opacity:1;"><g transform="translate(199.165647, 231.507525)"><path style="stroke:none" d="M 3.421875 -4.484375 C 2.921875 -4.117188 2.570312 -3.84375 2.375 -3.65625 C 1.945312 -3.226562 1.734375 -2.832031 1.734375 -2.46875 C 1.734375 -2.03125 1.894531 -1.640625 2.21875 -1.296875 C 2.53125 -0.953125 2.910156 -0.78125 3.359375 -0.78125 C 3.828125 -0.78125 4.351562 -1.050781 4.9375 -1.59375 C 5.082031 -1.738281 5.222656 -1.875 5.359375 -2 Z M 3.34375 -5.9375 C 3.445312 -5.820312 3.546875 -5.710938 3.640625 -5.609375 C 3.765625 -5.703125 3.90625 -5.800781 4.0625 -5.90625 C 4.195312 -6 4.328125 -6.109375 4.453125 -6.234375 C 4.722656 -6.503906 4.859375 -6.800781 4.859375 -7.125 C 4.859375 -7.445312 4.75 -7.695312 4.53125 -7.875 C 4.320312 -8.0625 4.085938 -8.160156 3.828125 -8.171875 C 3.554688 -8.179688 3.3125 -8.101562 3.09375 -7.9375 C 2.875 -7.757812 2.765625 -7.476562 2.765625 -7.09375 C 2.765625 -6.71875 2.957031 -6.332031 3.34375 -5.9375 Z M 7.734375 -3.4375 C 7.609375 -3.257812 7.21875 -2.773438 6.5625 -1.984375 L 8.09375 0 L 6.890625 0.03125 L 5.921875 -1.234375 C 5.492188 -0.796875 5.148438 -0.5 4.890625 -0.34375 C 4.359375 -0.0078125 3.890625 0.15625 3.484375 0.15625 C 3.078125 0.15625 2.71875 0.09375 2.40625 -0.03125 C 2.082031 -0.15625 1.8125 -0.335938 1.59375 -0.578125 C 1.09375 -1.054688 0.84375 -1.664062 0.84375 -2.40625 C 0.84375 -3.25 1.265625 -3.984375 2.109375 -4.609375 C 2.347656 -4.785156 2.597656 -4.96875 2.859375 -5.15625 C 2.234375 -5.875 1.921875 -6.515625 1.921875 -7.078125 C 1.921875 -7.617188 2.09375 -8.070312 2.4375 -8.4375 C 2.789062 -8.789062 3.253906 -8.96875 3.828125 -8.96875 C 4.367188 -8.96875 4.816406 -8.800781 5.171875 -8.46875 C 5.523438 -8.113281 5.703125 -7.671875 5.703125 -7.140625 C 5.703125 -6.566406 5.363281 -6.003906 4.6875 -5.453125 C 4.507812 -5.296875 4.335938 -5.148438 4.171875 -5.015625 L 6 -2.6875 C 6.164062 -2.894531 6.332031 -3.101562 6.5 -3.3125 L 7 -3.9375 Z M 7.734375 -3.4375 "/></g></g><g style="fill:#ffffff;fill-opacity:1;"><g transform="translate(208.119905, 231.507525)"><path style="stroke:none" d=""/></g></g><g style="fill:#ffffff;fill-opacity:1;"><g transform="translate(211.628835, 231.507525)"><path style="stroke:none" d="M 9.703125 -4.140625 L 9.609375 -3.59375 C 9.421875 -2.507812 8.894531 -1.625 8.03125 -0.9375 C 7.175781 -0.238281 6.210938 0.109375 5.140625 0.109375 C 4.515625 0.109375 3.921875 -0.015625 3.359375 -0.265625 C 2.804688 -0.492188 2.328125 -0.816406 1.921875 -1.234375 C 1.503906 -1.640625 1.179688 -2.117188 0.953125 -2.671875 C 0.703125 -3.234375 0.578125 -3.828125 0.578125 -4.453125 C 0.578125 -5.078125 0.703125 -5.671875 0.953125 -6.234375 C 1.179688 -6.785156 1.503906 -7.269531 1.921875 -7.6875 C 2.328125 -8.09375 2.804688 -8.414062 3.359375 -8.65625 C 3.921875 -8.894531 4.484375 -9.015625 5.046875 -9.015625 C 6.097656 -9.015625 7.03125 -8.710938 7.84375 -8.109375 C 8.65625 -7.515625 9.207031 -6.726562 9.5 -5.75 L 8.546875 -5.75 C 8.265625 -6.46875 7.816406 -7.039062 7.203125 -7.46875 C 6.578125 -7.882812 5.890625 -8.09375 5.140625 -8.09375 C 4.128906 -8.09375 3.269531 -7.738281 2.5625 -7.03125 C 1.851562 -6.320312 1.5 -5.460938 1.5 -4.453125 C 1.5 -3.460938 1.851562 -2.609375 2.5625 -1.890625 C 3.257812 -1.171875 4.117188 -0.8125 5.140625 -0.8125 C 5.929688 -0.8125 6.65625 -1.039062 7.3125 -1.5 C 7.96875 -1.96875 8.425781 -2.582031 8.6875 -3.34375 L 5.09375 -3.34375 L 5.09375 -4.140625 Z M 9.703125 -4.140625 "/></g></g><g style="fill:#ffffff;fill-opacity:1;"><g transform="translate(221.908684, 231.507525)"><path style="stroke:none" d="M 5.65625 -2.890625 C 5.65625 -3.460938 5.453125 -3.953125 5.046875 -4.359375 C 4.640625 -4.765625 4.148438 -4.96875 3.578125 -4.96875 C 3.003906 -4.96875 2.515625 -4.765625 2.109375 -4.359375 C 1.703125 -3.953125 1.5 -3.460938 1.5 -2.890625 C 1.5 -2.328125 1.703125 -1.84375 2.109375 -1.4375 C 2.515625 -1.019531 3.003906 -0.8125 3.578125 -0.8125 C 4.148438 -0.8125 4.640625 -1.019531 5.046875 -1.4375 C 5.453125 -1.84375 5.65625 -2.328125 5.65625 -2.890625 Z M 6.5625 -2.890625 C 6.5625 -2.054688 6.269531 -1.351562 5.6875 -0.78125 C 5.09375 -0.195312 4.390625 0.09375 3.578125 0.09375 C 2.765625 0.09375 2.0625 -0.195312 1.46875 -0.78125 C 0.875 -1.351562 0.578125 -2.054688 0.578125 -2.890625 C 0.578125 -3.710938 0.875 -4.414062 1.46875 -5 C 2.050781 -5.582031 2.753906 -5.875 3.578125 -5.875 C 4.398438 -5.875 5.101562 -5.582031 5.6875 -5 C 6.269531 -4.414062 6.5625 -3.710938 6.5625 -2.890625 Z M 6.5625 -2.890625 "/></g></g><g style="fill:#ffffff;fill-opacity:1;"><g transform="translate(229.056492, 231.507525)"><path style="stroke:none" d="M 1.890625 0 L 0.96875 0 L 0.96875 -9.75 L 1.890625 -9.75 Z M 1.890625 0 "/></g></g><g style="fill:#ffffff;fill-opacity:1;"><g transform="translate(231.915615, 231.507525)"><path style="stroke:none" d="M 5.53125 -2.859375 C 5.53125 -3.410156 5.335938 -3.894531 4.953125 -4.3125 C 4.566406 -4.726562 4.085938 -4.9375 3.515625 -4.9375 C 2.941406 -4.9375 2.460938 -4.726562 2.078125 -4.3125 C 1.691406 -3.894531 1.5 -3.410156 1.5 -2.859375 C 1.5 -2.304688 1.691406 -1.820312 2.078125 -1.40625 C 2.460938 -0.988281 2.941406 -0.78125 3.515625 -0.78125 C 4.085938 -0.78125 4.566406 -0.988281 4.953125 -1.40625 C 5.335938 -1.820312 5.53125 -2.304688 5.53125 -2.859375 Z M 6.4375 0 L 5.53125 0 L 5.53125 -0.96875 C 5.476562 -0.90625 5.425781 -0.84375 5.375 -0.78125 C 4.820312 -0.175781 4.148438 0.125 3.359375 0.125 C 2.578125 0.125 1.914062 -0.175781 1.375 -0.78125 C 0.84375 -1.363281 0.578125 -2.054688 0.578125 -2.859375 C 0.578125 -3.660156 0.84375 -4.351562 1.375 -4.9375 C 1.914062 -5.539062 2.578125 -5.84375 3.359375 -5.84375 C 4.148438 -5.84375 4.820312 -5.539062 5.375 -4.9375 C 5.425781 -4.875 5.476562 -4.8125 5.53125 -4.75 L 5.53125 -9.75 L 6.4375 -9.75 Z M 6.4375 0 "/></g></g></g></svg>